<?xml version="1.0" encoding="UTF-8"?>
<svg width="164px" height="65px" viewBox="0 0 164 65" version="1.1" xmlns="http://www.w3.org/2000/svg" xmlns:xlink="http://www.w3.org/1999/xlink">
    <!-- Generator: Sketch 43.2 (39069) - http://www.bohemiancoding.com/sketch -->
    <title>SVG/CharacterJonDaenerysPhones</title>
    <desc>Created with Sketch.</desc>
    <defs>
        <rect id="path-1" x="0" y="0" width="40" height="64"></rect>
        <rect id="path-3" x="0" y="0" width="40" height="64"></rect>
        <rect id="path-5" x="0" y="0" width="40" height="64"></rect>
        <rect id="path-7" x="0" y="0" width="40" height="64"></rect>
        <rect id="path-9" x="0" y="0" width="12" height="12"></rect>
        <rect id="path-11" x="0" y="0" width="12" height="12"></rect>
        <rect id="path-13" x="0" y="0" width="12" height="12"></rect>
        <rect id="path-15" x="0" y="0" width="12" height="12"></rect>
    </defs>
    <g id="Page-1" stroke="none" stroke-width="1" fill="none" fill-rule="evenodd">
        <g id="Desktop-HD" transform="translate(-277.000000, -299.000000)">
            <g id="SVG/CharacterJonDaenerysPhones" transform="translate(277.000000, 288.000000)">
                <g id="CharacterDaenerys" transform="translate(0.000000, 11.000000)">
                    <mask id="mask-2" fill="white">
                        <use xlink:href="#path-1"></use>
                    </mask>
                    <use id="Mask" fill="#FFFFFF" xlink:href="#path-1"></use>
                    <g mask="url(#mask-2)">
                        <g transform="translate(-14.000000, -11.000000)">
                            <g id="Dany-Body-Copy" transform="translate(24.000000, 38.000000)">
                                <rect id="Rectangle-25-Copy-2" fill="#FFC487" x="6" y="0" width="6" height="6"></rect>
                                <rect id="Rectangle-17" fill="#011837" x="6" y="0" width="6" height="2"></rect>
                                <polygon id="Rectangle-22" fill="#1CB0F6" points="2 6 14 6 14 24 16 24 16 26 14 26 0 26 0 24 2 24"></polygon>
                                <rect id="Rectangle-25" fill="#FFC487" x="2" y="6" width="2" height="6"></rect>
                                <rect id="Rectangle-25-Copy" fill="#FFC487" x="14" y="6" width="2" height="6"></rect>
                                <rect id="Rectangle-24" fill="#ACABB0" x="4" y="16" width="2" height="10"></rect>
                                <polygon id="Rectangle-23" fill="#1C69C7" points="6 14 10 14 10 18 12 18 12 22 12 24 14 24 14 26 12 26 10 26 10 22 6 22"></polygon>
                                <rect id="Rectangle-26" fill="#1C69C7" x="4" y="6" width="2" height="2"></rect>
                                <rect id="Rectangle-26-Copy" fill="#1C69C7" x="6" y="4" width="4" height="2"></rect>
                                <rect id="Rectangle-26-Copy-2" fill="#1C69C7" x="12" y="4" width="2" height="4"></rect>
                                <polygon id="Rectangle-24-Copy" fill="#ACABB0" points="10 16 12 16 12 18 10 18 10 26 8 26 8 18 10 18"></polygon>
                            </g>
                            <g id="Char/Daenerys">
                                <g>
                                    <rect id="Bounds" x="0" y="0" width="64" height="64"></rect>
                                    <g id="Daenerys" transform="translate(22.000000, 19.000000)">
                                        <rect id="Rectangle-2" fill="#FFC480" x="4" y="5" width="14" height="14"></rect>
                                        <polygon id="Path-2" fill="#FFE7BB" points="18 16 20 16 20 24 18 24 18 29 16 29 16 31 14 31 14 29 16 29 16 17 18 17"></polygon>
                                        <polygon id="Path-3" fill="#FFE7BB" points="18 13 20 13 20 5 18 5 18 3 16 3 16 0 4 0 4 3 2 3 2 8 0 8 0 16 2 16 2 24 6 24 6 29 8 29 8 32 10 32 10 24 8 24 8 16 6 16 6 8 10 8 10 5 16 5 16 8 18 8"></polygon>
                                    </g>
                                </g>
                            </g>
                        </g>
                    </g>
                </g>
                <g id="CharacterJon" transform="translate(124.000000, 12.000000)">
                    <mask id="mask-4" fill="white">
                        <use xlink:href="#path-3"></use>
                    </mask>
                    <use id="Mask" fill="#FFFFFF" xlink:href="#path-3"></use>
                    <g mask="url(#mask-4)">
                        <g transform="translate(-8.000000, -12.000000)">
                            <g id="JonBody-Copy" transform="translate(22.000000, 40.000000)">
                                <polygon id="Rectangle-30" fill="#0A0B20" points="0 2 18 2 18 16 16 16 16 24 0 24 0 22 2 22 2 14 0 14 0 12 0 6"></polygon>
                                <rect id="Rectangle-31-Copy-4" fill="#F8E9E4" x="14" y="10" width="2" height="4"></rect>
                                <path d="M0,2 L2,2 L2,0 L4,0 L4,2 L8,2 L8,6 L8,8 L4,8 L4,6 L0,6 L0,2 Z M12,2 L16,2 L16,0 L18,0 L18,2 L18,4 L16,4 L16,6 L14,6 L14,8 L12,8 L12,6 L12,2 Z" id="Combined-Shape" fill="#9C9B94"></path>
                                <path d="M6,6 L8,6 L8,8 L6,8 L6,6 Z M12,6 L14,6 L14,8 L12,8 L12,6 Z M10,12 L12,12 L12,14 L10,14 L10,12 Z M4,16 L8,16 L8,18 L4,18 L4,16 Z M6,10 L10,10 L10,14 L6,14 L6,10 Z M8,2 L12,2 L12,6 L8,6 L8,2 Z" id="Combined-Shape" fill="#29374E"></path>
                            </g>
                            <g id="Char/JonSnow" transform="translate(32.000000, 32.000000) scale(-1, 1) translate(-32.000000, -32.000000) ">
                                <g id="Char/Jon-Snow">
                                    <rect id="Bounds" x="0" y="0" width="64" height="64"></rect>
                                    <g id="Jon" transform="translate(20.000000, 20.000000)">
                                        <rect id="Skin" fill="#FFC17A" x="6" y="6" width="14" height="14"></rect>
                                        <path d="M6,20 L10,20 L10,18 L12,18 L12,20 L18,20 L18,18 L22,18 L22,20 L20,20 L20,22 L6,22 L6,20 Z M4,20 L4,18 L2,18 L2,12 L0,12 L0,6 L2,6 L2,4 L4,4 L4,2 L10,2 L10,0 L16,0 L16,2 L18,2 L18,4 L20,4 L20,6 L22,6 L22,8 L24,8 L24,12 L22,12 L22,18 L20,18 L20,10 L18,10 L18,8 L16,8 L16,6 L14,6 L14,8 L10,8 L10,10 L6,10 L6,20 L4,20 Z M12,16 L14,16 L14,18 L12,18 L12,16 Z M16,16 L18,16 L18,18 L16,18 L16,16 Z" id="Hair" fill="#212121"></path>
                                    </g>
                                </g>
                            </g>
                        </g>
                    </g>
                </g>
                <g id="CharacterDaenerysPhone" transform="translate(0.000000, 11.000000)">
                    <mask id="mask-6" fill="white">
                        <use xlink:href="#path-5"></use>
                    </mask>
                    <use id="Mask" fill="#FFFFFF" xlink:href="#path-5"></use>
                    <g mask="url(#mask-6)">
                        <g transform="translate(-14.000000, -11.000000)">
                            <g id="Dany-Body-Copy" transform="translate(24.000000, 38.000000)">
                                <rect id="Rectangle-25-Copy-2" fill="#FFC487" x="6" y="0" width="6" height="6"></rect>
                                <rect id="Rectangle-17" fill="#011837" x="6" y="0" width="6" height="2"></rect>
                                <polygon id="Rectangle-22" fill="#1CB0F6" points="2 6 14 6 14 24 16 24 16 26 14 26 0 26 0 24 2 24"></polygon>
                                <rect id="Rectangle-25" fill="#FFC487" x="2" y="6" width="2" height="6"></rect>
                                <polygon id="Rectangle-25-Copy" fill="#FFC487" points="14 6 16 6 16 10 18 10 18 12 16 12 14 12"></polygon>
                                <rect id="Rectangle" fill="#333333" x="18" y="4" width="4" height="8"></rect>
                                <rect id="Rectangle-2" fill="#FFC48D" x="20" y="10" width="2" height="2"></rect>
                                <rect id="Rectangle-24" fill="#ACABB0" x="4" y="16" width="2" height="10"></rect>
                                <polygon id="Rectangle-23" fill="#1C69C7" points="6 14 10 14 10 18 12 18 12 22 12 24 14 24 14 26 12 26 10 26 10 22 6 22"></polygon>
                                <rect id="Rectangle-26" fill="#1C69C7" x="4" y="6" width="2" height="2"></rect>
                                <rect id="Rectangle-26-Copy" fill="#1C69C7" x="6" y="4" width="4" height="2"></rect>
                                <rect id="Rectangle-26-Copy-2" fill="#1C69C7" x="12" y="4" width="2" height="4"></rect>
                                <polygon id="Rectangle-24-Copy" fill="#ACABB0" points="10 16 12 16 12 18 10 18 10 26 8 26 8 18 10 18"></polygon>
                            </g>
                            <g id="Char/Daenerys">
                                <g>
                                    <rect id="Bounds" x="0" y="0" width="64" height="64"></rect>
                                    <g id="Daenerys" transform="translate(22.000000, 19.000000)">
                                        <rect id="Rectangle-2" fill="#FFC480" x="4" y="5" width="14" height="14"></rect>
                                        <polygon id="Path-2" fill="#FFE7BB" points="18 16 20 16 20 24 18 24 18 29 16 29 16 31 14 31 14 29 16 29 16 17 18 17"></polygon>
                                        <polygon id="Path-3" fill="#FFE7BB" points="18 13 20 13 20 5 18 5 18 3 16 3 16 0 4 0 4 3 2 3 2 8 0 8 0 16 2 16 2 24 6 24 6 29 8 29 8 32 10 32 10 24 8 24 8 16 6 16 6 8 10 8 10 5 16 5 16 8 18 8"></polygon>
                                    </g>
                                </g>
                            </g>
                        </g>
                    </g>
                </g>
                <g id="CharacterJonPhone" transform="translate(124.000000, 12.000000)">
                    <mask id="mask-8" fill="white">
                        <use xlink:href="#path-7"></use>
                    </mask>
                    <use id="Mask" fill="#FFFFFF" xlink:href="#path-7"></use>
                    <g mask="url(#mask-8)">
                        <g transform="translate(-8.000000, -12.000000)">
                            <g id="JonBody-Copy" transform="translate(16.000000, 38.000000)">
                                <polygon id="Rectangle-30" fill="#0A0B20" points="6 4 24 4 24 18 22 18 22 26 6 26 6 24 8 24 8 16 6 16 6 14 4 14 4 12 2 12 2 10 4 10 4 8 6 8"></polygon>
                                <rect id="Rectangle-3" fill="#FFC182" x="0" y="8" width="4" height="2"></rect>
                                <rect id="Rectangle-4" fill="#333333" x="0" y="0" width="4" height="8"></rect>
                                <rect id="Rectangle-31-Copy-4" fill="#F8E9E4" x="20" y="12" width="2" height="4"></rect>
                                <rect id="Rectangle-3-Copy" fill="#FFC182" x="0" y="6" width="2" height="2"></rect>
                                <path d="M6,4 L8,4 L8,2 L10,2 L10,4 L14,4 L14,8 L14,10 L10,10 L10,8 L6,8 L6,4 Z M18,4 L22,4 L22,2 L24,2 L24,4 L24,6 L22,6 L22,8 L20,8 L20,10 L18,10 L18,8 L18,4 Z" id="Combined-Shape" fill="#9C9B94"></path>
                                <path d="M12,8 L14,8 L14,10 L12,10 L12,8 Z M18,8 L20,8 L20,10 L18,10 L18,8 Z M16,14 L18,14 L18,16 L16,16 L16,14 Z M10,18 L14,18 L14,20 L10,20 L10,18 Z M12,12 L16,12 L16,16 L12,16 L12,12 Z M14,4 L18,4 L18,8 L14,8 L14,4 Z" id="Combined-Shape" fill="#29374E"></path>
                            </g>
                            <g id="Char/JonSnow" transform="translate(32.000000, 32.000000) scale(-1, 1) translate(-32.000000, -32.000000) ">
                                <g id="Char/Jon-Snow">
                                    <rect id="Bounds" x="0" y="0" width="64" height="64"></rect>
                                    <g id="Jon" transform="translate(20.000000, 20.000000)">
                                        <rect id="Skin" fill="#FFC17A" x="6" y="6" width="14" height="14"></rect>
                                        <path d="M6,20 L10,20 L10,18 L12,18 L12,20 L18,20 L18,18 L22,18 L22,20 L20,20 L20,22 L6,22 L6,20 Z M4,20 L4,18 L2,18 L2,12 L0,12 L0,6 L2,6 L2,4 L4,4 L4,2 L10,2 L10,0 L16,0 L16,2 L18,2 L18,4 L20,4 L20,6 L22,6 L22,8 L24,8 L24,12 L22,12 L22,18 L20,18 L20,10 L18,10 L18,8 L16,8 L16,6 L14,6 L14,8 L10,8 L10,10 L6,10 L6,20 L4,20 Z M12,16 L14,16 L14,18 L12,18 L12,16 Z M16,16 L18,16 L18,18 L16,18 L16,16 Z" id="Hair" fill="#212121"></path>
                                    </g>
                                </g>
                            </g>
                        </g>
                    </g>
                </g>
                <g id="AnimationSparkle2-2" transform="translate(32.000000, 30.000000)">
                    <mask id="mask-10" fill="white">
                        <use xlink:href="#path-9"></use>
                    </mask>
                    <g id="Mask"></g>
                    <rect id="Rectangle-6" fill="#F9DD60" mask="url(#mask-10)" x="5" y="5" width="2" height="2"></rect>
                </g>
                <g id="AnimationSparkle2-1" transform="translate(32.000000, 30.000000)">
                    <mask id="mask-12" fill="white">
                        <use xlink:href="#path-11"></use>
                    </mask>
                    <g id="Mask"></g>
                    <path d="M5,3 L7,3 L7,5 L5,5 L5,3 Z M5,7 L7,7 L7,9 L5,9 L5,7 Z M3,5 L5,5 L5,7 L3,7 L3,5 Z M7,5 L9,5 L9,7 L7,7 L7,5 Z" id="Combined-Shape" fill="#F9DD60" mask="url(#mask-12)"></path>
                </g>
                <g id="AnimationSparkle1-2" transform="translate(120.000000, 26.000000)">
                    <mask id="mask-14" fill="white">
                        <use xlink:href="#path-13"></use>
                    </mask>
                    <g id="Mask"></g>
                    <path d="M5,3 L7,3 L7,5 L5,5 L5,3 Z M5,7 L7,7 L7,9 L5,9 L5,7 Z M3,5 L5,5 L5,7 L3,7 L3,5 Z M7,5 L9,5 L9,7 L7,7 L7,5 Z" id="Combined-Shape" fill="#F9DD60" mask="url(#mask-14)"></path>
                </g>
                <g id="AnimationSparkle1-1" transform="translate(120.000000, 26.000000)">
                    <mask id="mask-16" fill="white">
                        <use xlink:href="#path-15"></use>
                    </mask>
                    <g id="Mask"></g>
                    <rect id="Rectangle-6" fill="#F9DD60" mask="url(#mask-16)" x="5" y="5" width="2" height="2"></rect>
                </g>
                <g id="Icon/Throne" transform="translate(51.000000, 0.000000)">
                    <g>
                        <rect id="Bounds" x="0" y="0" width="64" height="64"></rect>
                        <g id="Throne" transform="translate(19.000000, 18.000000)">
                            <rect id="Rectangle-3-Copy-39" fill="#000000" x="12" y="20" width="2" height="8"></rect>
                            <rect id="Rectangle-3-Copy-38" fill="#000000" x="8" y="20" width="2" height="8"></rect>
                            <rect id="Rectangle-3-Copy-37" fill="#000000" x="16" y="20" width="2" height="8"></rect>
                            <rect id="Rectangle-3-Copy-36" fill="#000000" x="6" y="20" width="2" height="8"></rect>
                            <rect id="Rectangle-3-Copy-40" fill="#000000" x="2" y="22" width="2" height="4"></rect>
                            <rect id="Rectangle-3-Copy-41" fill="#000000" x="22" y="22" width="2" height="4"></rect>
                            <rect id="Rectangle-3-Copy-48" fill="#9C9B93" x="2" y="22" width="2" height="2"></rect>
                            <rect id="Rectangle-3-Copy-47" fill="#9C9B93" x="22" y="22" width="2" height="2"></rect>
                            <rect id="Rectangle-3-Copy-42" fill="#000000" x="24" y="24" width="2" height="2"></rect>
                            <rect id="Rectangle-3-Copy-43" fill="#000000" x="0" y="24" width="2" height="2"></rect>
                            <rect id="Rectangle-3-Copy-35" fill="#000000" x="18" y="20" width="2" height="8"></rect>
                            <rect id="Rectangle-3-Copy-34" fill="#000000" x="4" y="20" width="2" height="8"></rect>
                            <rect id="Rectangle-3-Copy-33" fill="#000000" x="20" y="20" width="2" height="8"></rect>
                            <rect id="Rectangle-3-Copy-32" fill="#000000" x="10" y="20" width="2" height="8"></rect>
                            <rect id="Rectangle-3-Copy-31" fill="#000000" x="14" y="20" width="2" height="8"></rect>
                            <rect id="Rectangle-3" fill="#D9D9D9" x="12" y="0" width="2" height="20"></rect>
                            <rect id="Rectangle-3-Copy" fill="#D9D9D9" x="8" y="2" width="2" height="18"></rect>
                            <rect id="Rectangle-3-Copy-7" fill="#D9D9D9" x="16" y="2" width="2" height="18"></rect>
                            <rect id="Rectangle-3-Copy-2" fill="#D9D9D9" x="6" y="4" width="2" height="16"></rect>
                            <rect id="Rectangle-3-Copy-8" fill="#D9D9D9" x="18" y="6" width="2" height="14"></rect>
                            <rect id="Rectangle-3-Copy-5" fill="#D9D9D9" x="4" y="8" width="2" height="12"></rect>
                            <rect id="Rectangle-3-Copy-9" fill="#D9D9D9" x="20" y="8" width="2" height="12"></rect>
                            <rect id="Rectangle-3-Copy-6" fill="#D9D9D9" x="2" y="10" width="2" height="8"></rect>
                            <rect id="Rectangle-3-Copy-10" fill="#D9D9D9" x="22" y="10" width="2" height="8"></rect>
                            <rect id="Rectangle-3-Copy-3" fill="#D9D9D9" x="10" y="6" width="2" height="14"></rect>
                            <rect id="Rectangle-3-Copy-4" fill="#D9D9D9" x="14" y="4" width="2" height="16"></rect>
                            <rect id="Rectangle-3-Copy-21" fill="#9C9B93" x="12" y="18" width="2" height="2"></rect>
                            <rect id="Rectangle-3-Copy-22" fill="#333333" x="12" y="20" width="2" height="2"></rect>
                            <rect id="Rectangle-3-Copy-44" fill="#333333" x="12" y="12" width="2" height="6"></rect>
                            <rect id="Rectangle-3-Copy-45" fill="#333333" x="8" y="10" width="2" height="6"></rect>
                            <rect id="Rectangle-3-Copy-46" fill="#333333" x="16" y="8" width="2" height="8"></rect>
                            <rect id="Rectangle-3-Copy-20" fill="#9C9B93" x="8" y="16" width="2" height="4"></rect>
                            <rect id="Rectangle-3-Copy-23" fill="#333333" x="8" y="20" width="2" height="4"></rect>
                            <rect id="Rectangle-3-Copy-19" fill="#9C9B93" x="16" y="16" width="2" height="4"></rect>
                            <rect id="Rectangle-3-Copy-24" fill="#333333" x="16" y="20" width="2" height="4"></rect>
                            <rect id="Rectangle-3-Copy-25" fill="#333333" x="6" y="20" width="2" height="6"></rect>
                            <rect id="Rectangle-3-Copy-26" fill="#333333" x="18" y="20" width="2" height="6"></rect>
                            <rect id="Rectangle-3-Copy-16" fill="#9C9B93" x="4" y="12" width="2" height="8"></rect>
                            <rect id="Rectangle-3-Copy-27" fill="#333333" x="4" y="20" width="2" height="8"></rect>
                            <rect id="Rectangle-3-Copy-15" fill="#9C9B93" x="20" y="12" width="2" height="8"></rect>
                            <rect id="Rectangle-3-Copy-28" fill="#333333" x="20" y="20" width="2" height="8"></rect>
                            <rect id="Rectangle-3-Copy-14" fill="#9C9B93" x="2" y="14" width="2" height="4"></rect>
                            <rect id="Rectangle-3-Copy-13" fill="#9C9B93" x="22" y="14" width="2" height="4"></rect>
                            <rect id="Rectangle-3-Copy-12" fill="#9C9B93" x="10" y="18" width="2" height="2"></rect>
                            <rect id="Rectangle-3-Copy-29" fill="#333333" x="10" y="20" width="2" height="2"></rect>
                            <rect id="Rectangle-3-Copy-11" fill="#9C9B93" x="14" y="18" width="2" height="2"></rect>
                            <rect id="Rectangle-3-Copy-30" fill="#333333" x="14" y="20" width="2" height="2"></rect>
                            <rect id="Rectangle-3-Copy-18" fill="#D9D9D9" x="6" y="14" width="2" height="10"></rect>
                            <rect id="Rectangle-3-Copy-17" fill="#D9D9D9" x="18" y="14" width="2" height="10"></rect>
                            <rect id="Rectangle-3-Copy-50" fill="#9C9B93" x="6" y="14" width="2" height="2"></rect>
                            <rect id="Rectangle-3-Copy-49" fill="#9C9B93" x="18" y="14" width="2" height="2"></rect>
                        </g>
                    </g>
                </g>
            </g>
        </g>
    </g>
</svg>