<?xml version="1.0" encoding="UTF-8"?>
<svg width="64px" height="64px" viewBox="0 0 64 64" version="1.1" xmlns="http://www.w3.org/2000/svg" xmlns:xlink="http://www.w3.org/1999/xlink">
    <!-- Generator: Sketch 43.2 (39069) - http://www.bohemiancoding.com/sketch -->
    <title>Icon/Instagram</title>
    <desc>Created with Sketch.</desc>
    <defs>
        <linearGradient x1="100%" y1="0%" x2="0%" y2="100%" id="linearGradient-1">
            <stop stop-color="#5C6BB0" offset="0%"></stop>
            <stop stop-color="#DB4164" offset="49.8855591%"></stop>
            <stop stop-color="#F7B469" offset="100%"></stop>
        </linearGradient>
        <linearGradient x1="100%" y1="0%" x2="0%" y2="100%" id="linearGradient-2">
            <stop stop-color="#FB0645" offset="0%"></stop>
            <stop stop-color="#E34D5F" offset="49.6017456%"></stop>
            <stop stop-color="#EF511B" offset="100%"></stop>
        </linearGradient>
    </defs>
    <g id="Symbols" stroke="none" stroke-width="1" fill="none" fill-rule="evenodd">
        <g id="Icon/Instagram">
            <g>
                <rect id="Bounds" x="0" y="0" width="64" height="64"></rect>
                <g id="Logo" transform="translate(24.000000, 24.000000)">
                    <rect id="Rectangle-5" x="0" y="0" width="16" height="16"></rect>
                    <path d="M2,0 L14,0 L14,2 L2,2 L2,0 Z M2,14 L14,14 L14,16 L2,16 L2,14 Z M0,2 L2,2 L2,14 L0,14 L0,2 Z M14,2 L16,2 L16,14 L14,14 L14,2 Z" id="Combined-Shape" fill="url(#linearGradient-1)"></path>
                    <rect id="Rectangle-8-Copy-8" fill="#D20067" x="12" y="2" width="2" height="2"></rect>
                    <path d="M6,4 L8,4 L8,6 L6,6 L6,4 Z M8,4 L10,4 L10,6 L8,6 L8,4 Z M10,6 L12,6 L12,8 L10,8 L10,6 Z M10,8 L12,8 L12,10 L10,10 L10,8 Z M6,10 L8,10 L8,12 L6,12 L6,10 Z M8,10 L10,10 L10,12 L8,12 L8,10 Z M4,6 L6,6 L6,8 L4,8 L4,6 Z M4,8 L6,8 L6,10 L4,10 L4,8 Z" id="Combined-Shape" fill="url(#linearGradient-2)"></path>
                </g>
            </g>
        </g>
    </g>
</svg>