<?xml version="1.0" encoding="UTF-8"?>
<svg width="160px" height="132px" viewBox="0 0 160 132" version="1.1" xmlns="http://www.w3.org/2000/svg" xmlns:xlink="http://www.w3.org/1999/xlink">
    <!-- Generator: Sketch 43.2 (39069) - http://www.bohemiancoding.com/sketch -->
    <title>SVG/Title</title>
    <desc>Created with Sketch.</desc>
    <defs></defs>
    <g id="Page-1" stroke="none" stroke-width="1" fill="none" fill-rule="evenodd">
        <g id="Desktop-HD" transform="translate(-280.000000, -104.000000)">
            <g id="SVG/Title" transform="translate(280.000000, 104.000000)">
                <g id="Fantasy" transform="translate(0.000000, 56.000000)" fill="#A560E8">
                    <path d="M124,40 L124,36 L116,36 L116,44 L120,44 L120,48 L128,48 L128,40 L124,40 Z M88,52 L88,48 L80,48 L80,56 L84,56 L84,60 L92,60 L92,52 L88,52 Z M0,0 L8,0 L8,8 L0,8 L0,0 Z M8,4 L16,4 L16,12 L8,12 L8,4 Z M16,8 L24,8 L24,12 L16,12 L16,8 Z M20,12 L24,12 L24,16 L20,16 L20,12 Z M4,32 L8,32 L8,36 L4,36 L4,32 Z M20,48 L24,48 L24,52 L20,52 L20,48 Z M24,48 L28,48 L28,52 L24,52 L24,48 Z M20,52 L24,52 L24,56 L20,56 L20,52 Z M24,52 L28,52 L28,56 L24,56 L24,52 Z M24,64 L28,64 L28,68 L24,68 L24,64 Z M4,64 L8,64 L8,68 L4,68 L4,64 Z M24,28 L28,28 L28,32 L24,32 L24,28 Z M24,32 L28,32 L28,36 L24,36 L24,32 Z M28,28 L32,28 L32,32 L28,32 L28,28 Z M36,24 L40,24 L40,28 L36,28 L36,24 Z M96,16 L100,16 L100,20 L96,20 L96,16 Z M124,12 L128,12 L128,16 L124,16 L124,12 Z M128,12 L132,12 L132,16 L128,16 L128,12 Z M128,16 L132,16 L132,20 L128,20 L128,16 Z M132,16 L136,16 L136,20 L132,20 L132,16 Z M136,12 L140,12 L140,16 L136,16 L136,12 Z M140,12 L144,12 L144,16 L140,16 L140,12 Z M148,8 L152,8 L152,12 L148,12 L148,8 Z M156,4 L160,4 L160,8 L156,8 L156,4 Z M144,64 L148,64 L148,68 L144,68 L144,64 Z M120,64 L124,64 L124,68 L120,68 L120,64 Z M124,68 L128,68 L128,72 L124,72 L124,68 Z M140,68 L144,68 L144,72 L140,72 L140,68 Z M136,68 L140,68 L140,72 L136,72 L136,68 Z M124,48 L132,48 L132,52 L124,52 L124,48 Z M120,12 L124,12 L124,16 L120,16 L120,12 Z M116,24 L120,24 L120,28 L116,28 L116,24 Z M120,24 L124,24 L124,28 L120,28 L120,24 Z M120,28 L124,28 L124,32 L120,32 L120,28 Z M124,28 L128,28 L128,32 L124,32 L124,28 Z M132,28 L136,28 L136,32 L132,32 L132,28 Z M128,40 L132,40 L132,44 L128,44 L128,40 Z M128,44 L132,44 L132,48 L128,48 L128,44 Z M132,40 L136,40 L136,44 L132,44 L132,40 Z M128,36 L132,36 L132,40 L128,40 L128,36 Z M132,36 L136,36 L136,40 L132,40 L132,36 Z M132,32 L136,32 L136,36 L132,36 L132,32 Z M128,32 L132,32 L132,36 L128,36 L128,32 Z M128,28 L132,28 L132,32 L128,32 L128,28 Z M40,20 L44,20 L44,24 L40,24 L40,20 Z M100,12 L104,12 L104,16 L100,16 L100,12 Z M44,20 L48,20 L48,24 L44,24 L44,20 Z M104,12 L108,12 L108,16 L104,16 L104,12 Z M56,20 L60,20 L60,24 L56,24 L56,20 Z M64,20 L68,20 L68,24 L64,24 L64,20 Z M68,20 L72,20 L72,24 L68,24 L68,20 Z M76,20 L80,20 L80,24 L76,24 L76,20 Z M80,20 L84,20 L84,24 L80,24 L80,20 Z M80,16 L84,16 L84,20 L80,20 L80,16 Z M68,24 L72,24 L72,28 L68,28 L68,24 Z M72,24 L76,24 L76,28 L72,28 L72,24 Z M24,8 L32,8 L32,12 L24,12 L24,8 Z M32,8 L40,8 L40,12 L32,12 L32,8 Z M40,4 L48,4 L48,8 L40,8 L40,4 Z M16,16 L24,16 L24,24 L16,24 L16,16 Z M16,24 L24,24 L24,32 L16,32 L16,24 Z M16,32 L24,32 L24,40 L16,40 L16,32 Z M16,40 L24,40 L24,48 L16,48 L16,40 Z M8,28 L16,28 L16,36 L8,36 L8,28 Z M32,28 L40,28 L40,36 L32,36 L32,28 Z M44,24 L52,24 L52,32 L44,32 L44,24 Z M56,24 L64,24 L64,32 L56,32 L56,24 Z M56,32 L64,32 L64,40 L56,40 L56,32 Z M56,40 L64,40 L64,48 L56,48 L56,40 Z M56,48 L64,48 L64,56 L56,56 L56,48 Z M60,56 L68,56 L68,64 L60,64 L60,56 Z M72,52 L80,52 L80,60 L72,60 L72,52 Z M68,44 L76,44 L76,52 L68,52 L68,44 Z M68,36 L76,36 L76,44 L68,44 L68,36 Z M68,28 L76,28 L76,36 L68,36 L68,28 Z M84,16 L92,16 L92,24 L84,24 L84,16 Z M80,8 L88,8 L88,16 L80,16 L80,8 Z M80,24 L88,24 L88,32 L80,32 L80,24 Z M80,32 L88,32 L88,40 L80,40 L80,32 Z M80,40 L88,40 L88,48 L80,48 L80,40 Z M92,36 L100,36 L100,44 L92,44 L92,36 Z M92,28 L100,28 L100,36 L92,36 L92,28 Z M92,20 L100,20 L100,28 L92,28 L92,20 Z M104,16 L112,16 L112,24 L104,24 L104,16 Z M104,24 L112,24 L112,32 L104,32 L104,24 Z M104,32 L112,32 L112,40 L104,40 L104,32 Z M104,40 L112,40 L112,48 L104,48 L104,40 Z M108,48 L116,48 L116,56 L108,56 L108,48 Z M116,16 L124,16 L124,24 L116,24 L116,16 Z M140,16 L148,16 L148,24 L140,24 L140,16 Z M140,24 L148,24 L148,32 L140,32 L140,24 Z M140,32 L148,32 L148,40 L140,40 L140,32 Z M144,40 L152,40 L152,48 L144,48 L144,40 Z M152,32 L160,32 L160,40 L152,40 L152,32 Z M152,40 L160,40 L160,48 L152,48 L152,40 Z M152,48 L160,48 L160,56 L152,56 L152,48 Z M148,56 L156,56 L156,64 L148,64 L148,56 Z M128,68 L136,68 L136,76 L128,76 L128,68 Z M152,24 L160,24 L160,32 L152,32 L152,24 Z M152,16 L160,16 L160,24 L152,24 L152,16 Z M152,8 L160,8 L160,16 L152,16 L152,8 Z M96,44 L104,44 L104,52 L96,52 L96,44 Z M44,32 L52,32 L52,40 L44,40 L44,32 Z M44,40 L52,40 L52,48 L44,48 L44,40 Z M44,48 L52,48 L52,56 L44,56 L44,48 Z M48,56 L56,56 L56,64 L48,64 L48,56 Z M36,52 L44,52 L44,60 L36,60 L36,52 Z M32,44 L40,44 L40,52 L32,52 L32,44 Z M32,36 L40,36 L40,44 L32,44 L32,36 Z M24,56 L32,56 L32,64 L24,64 L24,56 Z M16,64 L24,64 L24,72 L16,72 L16,64 Z M8,60 L16,60 L16,68 L8,68 L8,60 Z" id="Combined-Shape"></path>
                </g>
                <g id="GOT" transform="translate(44.000000, 0.000000)" fill="#7CD5FE">
                    <rect id="Rectangle-16-Copy-109" x="16" y="12" width="8" height="8"></rect>
                    <rect id="Rectangle-16-Copy-106" x="4" y="8" width="16" height="4"></rect>
                    <rect id="Rectangle-16-Copy-127" x="16" y="44" width="4" height="4"></rect>
                    <rect id="Rectangle-16-Copy-105" x="16" y="28" width="8" height="16"></rect>
                    <rect id="Rectangle-16-Copy-114" x="12" y="24" width="12" height="4"></rect>
                    <rect id="Rectangle-16-Copy-61" x="0" y="12" width="8" height="24"></rect>
                    <rect id="Rectangle-16-Copy-62" x="0" y="33" width="8" height="8"></rect>
                    <rect id="Rectangle-16-Copy-63" x="4" y="40" width="12" height="8"></rect>
                    <rect id="Rectangle-16-Copy-143" x="40" y="17" width="8" height="20"></rect>
                    <rect id="Rectangle-16-Copy-141" x="32" y="13" width="12" height="4"></rect>
                    <rect id="Rectangle-16-Copy-142" x="44" y="4" width="30" height="4"></rect>
                    <rect id="Rectangle-16-Copy-144" x="56" y="8" width="8" height="4"></rect>
                    <rect id="Rectangle-16-Copy-147" x="74" y="0" width="4" height="4"></rect>
                    <rect id="Rectangle-16-Copy-145" x="52" y="12" width="8" height="24"></rect>
                    <rect id="Rectangle-16-Copy-146" x="56" y="36" width="8" height="8"></rect>
                    <rect id="Rectangle-16-Copy-140" x="32" y="21" width="4" height="4"></rect>
                    <rect id="Rectangle-16-Copy-137" x="40" y="37" width="4" height="4"></rect>
                    <rect id="Rectangle-16-Copy-78" x="28" y="17" width="8" height="20"></rect>
                    <rect id="Rectangle-16-Copy-64" x="32" y="33" width="8" height="8"></rect>
                </g>
            </g>
        </g>
    </g>
</svg>