<?xml version="1.0" encoding="UTF-8" standalone="no"?>
<svg width="160px" height="144px" viewBox="0 0 160 144" version="1.1" xmlns="http://www.w3.org/2000/svg" xmlns:xlink="http://www.w3.org/1999/xlink">
    <!-- Generator: Sketch 44.1 (41455) - http://www.bohemiancoding.com/sketch -->
    <title>Throne Fantasy</title>
    <desc>Created with Sketch.</desc>
    <defs></defs>
    <g id="Page-1" stroke="none" stroke-width="1" fill="none" fill-rule="evenodd">
        <g id="Desktop-HD" transform="translate(-280.000000, -92.000000)">
            <g id="Throne-Fantasy" transform="translate(280.000000, 92.000000)">
                <path d="M88,120 L88,116 L80,116 L80,124 L84,124 L84,128 L92,128 L92,120 L88,120 Z M0,68 L8,68 L8,76 L0,76 L0,68 Z M8,72 L16,72 L16,80 L8,80 L8,72 Z M16,76 L24,76 L24,80 L16,80 L16,76 Z M20,80 L24,80 L24,84 L20,84 L20,80 Z M4,100 L8,100 L8,104 L4,104 L4,100 Z M20,116 L24,116 L24,120 L20,120 L20,116 Z M24,116 L28,116 L28,120 L24,120 L24,116 Z M20,120 L24,120 L24,124 L20,124 L20,120 Z M24,120 L28,120 L28,124 L24,124 L24,120 Z M24,132 L28,132 L28,136 L24,136 L24,132 Z M4,132 L8,132 L8,136 L4,136 L4,132 Z M24,96 L28,96 L28,100 L24,100 L24,96 Z M24,100 L28,100 L28,104 L24,104 L24,100 Z M28,96 L32,96 L32,100 L28,100 L28,96 Z M36,92 L40,92 L40,96 L36,96 L36,92 Z M96,84 L100,84 L100,88 L96,88 L96,84 Z M140,80 L144,80 L144,84 L140,84 L140,80 Z M148,76 L152,76 L152,80 L148,80 L148,76 Z M156,72 L160,72 L160,76 L156,76 L156,72 Z M144,132 L148,132 L148,136 L144,136 L144,132 Z M120,132 L124,132 L124,136 L120,136 L120,132 Z M124,136 L128,136 L128,140 L124,140 L124,136 Z M140,136 L144,136 L144,140 L140,140 L140,136 Z M136,136 L140,136 L140,140 L136,140 L136,136 Z M40,88 L44,88 L44,92 L40,92 L40,88 Z M100,80 L104,80 L104,84 L100,84 L100,80 Z M44,88 L48,88 L48,92 L44,92 L44,88 Z M104,80 L108,80 L108,84 L104,84 L104,80 Z M56,88 L60,88 L60,92 L56,92 L56,88 Z M64,88 L68,88 L68,92 L64,92 L64,88 Z M68,88 L72,88 L72,92 L68,92 L68,88 Z M76,88 L80,88 L80,92 L76,92 L76,88 Z M80,88 L84,88 L84,92 L80,92 L80,88 Z M80,84 L84,84 L84,88 L80,88 L80,84 Z M68,92 L72,92 L72,96 L68,96 L68,92 Z M72,92 L76,92 L76,96 L72,96 L72,92 Z M24,76 L32,76 L32,80 L24,80 L24,76 Z M32,76 L40,76 L40,80 L32,80 L32,76 Z M40,72 L48,72 L48,76 L40,76 L40,72 Z M16,84 L24,84 L24,92 L16,92 L16,84 Z M16,92 L24,92 L24,100 L16,100 L16,92 Z M16,100 L24,100 L24,108 L16,108 L16,100 Z M16,108 L24,108 L24,116 L16,116 L16,108 Z M8,96 L16,96 L16,104 L8,104 L8,96 Z M32,96 L40,96 L40,104 L32,104 L32,96 Z M44,92 L52,92 L52,100 L44,100 L44,92 Z M56,92 L64,92 L64,100 L56,100 L56,92 Z M56,100 L64,100 L64,108 L56,108 L56,100 Z M56,108 L64,108 L64,116 L56,116 L56,108 Z M56,116 L64,116 L64,124 L56,124 L56,116 Z M60,124 L68,124 L68,132 L60,132 L60,124 Z M72,120 L80,120 L80,128 L72,128 L72,120 Z M68,112 L76,112 L76,120 L68,120 L68,112 Z M68,104 L76,104 L76,112 L68,112 L68,104 Z M68,96 L76,96 L76,104 L68,104 L68,96 Z M84,84 L92,84 L92,92 L84,92 L84,84 Z M80,76 L88,76 L88,84 L80,84 L80,76 Z M80,92 L88,92 L88,100 L80,100 L80,92 Z M80,100 L88,100 L88,108 L80,108 L80,100 Z M80,108 L88,108 L88,116 L80,116 L80,108 Z M92,104 L100,104 L100,112 L92,112 L92,104 Z M92,96 L100,96 L100,104 L92,104 L92,96 Z M92,88 L100,88 L100,96 L92,96 L92,88 Z M104,84 L112,84 L112,92 L104,92 L104,84 Z M104,92 L112,92 L112,100 L104,100 L104,92 Z M104,100 L112,100 L112,108 L104,108 L104,100 Z M104,108 L112,108 L112,116 L104,116 L104,108 Z M108,116 L116,116 L116,124 L108,124 L108,116 Z M120,84 L120,80 L132,80 L132,84 L140,84 L140,80 L136,80 L136,84 L136,92 L128,92 L128,84 L124,84 L124,96 L132,96 L132,100 L136,100 L136,116 L132,116 L132,120 L128,120 L120,120 L120,116 L116,116 L116,104 L124,104 L124,112 L128,112 L128,100 L120,100 L120,96 L116,96 L116,84 L120,84 Z M140,84 L148,84 L148,92 L140,92 L140,84 Z M140,92 L148,92 L148,100 L140,100 L140,92 Z M140,100 L148,100 L148,108 L140,108 L140,100 Z M144,108 L152,108 L152,116 L144,116 L144,108 Z M152,100 L160,100 L160,108 L152,108 L152,100 Z M152,108 L160,108 L160,116 L152,116 L152,108 Z M152,116 L160,116 L160,124 L152,124 L152,116 Z M148,124 L156,124 L156,132 L148,132 L148,124 Z M128,136 L136,136 L136,144 L128,144 L128,136 Z M152,92 L160,92 L160,100 L152,100 L152,92 Z M152,84 L160,84 L160,92 L152,92 L152,84 Z M152,76 L160,76 L160,84 L152,84 L152,76 Z M96,112 L104,112 L104,120 L96,120 L96,112 Z M44,100 L52,100 L52,108 L44,108 L44,100 Z M44,108 L52,108 L52,116 L44,116 L44,108 Z M44,116 L52,116 L52,124 L44,124 L44,116 Z M48,124 L56,124 L56,132 L48,132 L48,124 Z M36,120 L44,120 L44,128 L36,128 L36,120 Z M32,112 L40,112 L40,120 L32,120 L32,112 Z M32,104 L40,104 L40,112 L32,112 L32,104 Z M24,124 L32,124 L32,132 L24,132 L24,124 Z M16,132 L24,132 L24,140 L16,140 L16,132 Z M8,128 L16,128 L16,136 L8,136 L8,128 Z" id="Fantasy" fill="#A560E8"></path>
                <g id="Throne" transform="translate(8.000000, 0.000000)" fill="#7CD5FE">
                    <polygon id="Rectangle-50" points="96 28 96 24 100 24 100 28 104 28 104 60 108 60 108 68 100 68 100 60 96 60"></polygon>
                    <polygon id="Rectangle-50-Copy-15" points="56 28 56 24 60 24 60 28 64 28 64 24 72 24 72 28 68 28 64 28 64 52 68 52 68 60 60 60 60 52 56 52"></polygon>
                    <polygon id="Rectangle-50-Copy-6" points="32 8 36 8 36 4 44 4 44 8 40 8 40 60 44 60 44 68 36 68 36 60 32 60"></polygon>
                    <polygon id="Rectangle-50-Copy-2" points="84 28 80 28 80 24 88 24 88 28 92 28 92 56 88 56 88 64 84 64"></polygon>
                    <polygon id="Rectangle-50-Copy-4" points="132 24 128 24 128 20 136 20 136 24 140 24 140 44 140 52 136 52 136 56 132 56 132 40 144 40 144 44 140 44 140 40 140 36 128 36 128 32 132 32"></polygon>
                    <polygon id="Rectangle-50-Copy-3" points="72 32 76 32 76 28 80 28 80 56 84 56 84 64 76 64 76 56 72 56"></polygon>
                    <polygon id="Rectangle-50-Copy-5" points="120 24 124 24 124 20 128 20 128 52 132 52 132 56 124 56 124 52 120 52"></polygon>
                    <polygon id="Rectangle-50-Copy" points="108 28 104 28 104 24 112 24 112 28 116 28 116 56 120 56 120 64 112 64 112 56 108 56"></polygon>
                    <polygon id="Rectangle-50-Copy-7" points="44 28 40 28 40 24 48 24 48 28 52 28 52 56 56 56 56 64 48 64 48 56 44 56"></polygon>
                    <polygon id="Rectangle-2" points="0 0 8 0 8 4 16 4 16 8 32 8 32 4 40 4 40 8 32 8 32 12 24 12 24 52 28 52 28 60 24 60 24 64 20 64 20 68 12 68 12 64 12 60 16 60 16 16 20 16 20 12 8 12 8 8 0 8"></polygon>
                </g>
            </g>
        </g>
    </g>
</svg>