<?xml version="1.0" encoding="UTF-8"?>
<svg width="64px" height="64px" viewBox="0 0 64 64" version="1.1" xmlns="http://www.w3.org/2000/svg" xmlns:xlink="http://www.w3.org/1999/xlink">
    <!-- Generator: Sketch 43.2 (39069) - http://www.bohemiancoding.com/sketch -->
    <title>Icon/Twitter</title>
    <desc>Created with Sketch.</desc>
    <defs></defs>
    <g id="Symbols" stroke="none" stroke-width="1" fill="none" fill-rule="evenodd">
        <g id="Icon/Twitter">
            <g>
                <rect id="Bounds" x="0" y="0" width="64" height="64"></rect>
                <path d="M24,24 L40,24 L40,40 L24,40 L24,24 Z M33,35 L33,37 L35,37 L35,35 L33,35 Z M31,35 L31,37 L33,37 L33,35 L31,35 Z M29,27 L29,35 L31,35 L31,27 L29,27 Z M33,29 L33,31 L35,31 L35,29 L33,29 Z M31,29 L31,31 L33,31 L33,29 L31,29 Z" id="Combined-Shape" fill="#00ACED"></path>
            </g>
        </g>
    </g>
</svg>